<svg width="32" height="32" viewBox="0 0 32 32" fill="none" xmlns="http://www.w3.org/2000/svg">
<g clip-path="url(#clip0_14_314)">
<path d="M18.6667 2.66675H5.33341C3.85341 2.66675 2.66675 3.86675 2.66675 5.33341V18.6667H5.33341V5.33341H18.6667V2.66675ZM24.0001 8.00008H10.6667C9.18675 8.00008 8.00008 9.20008 8.00008 10.6667V24.0001H10.6667V10.6667H24.0001V8.00008ZM26.6667 13.3334H16.0001C14.5201 13.3334 13.3334 14.5334 13.3334 16.0001V26.6667C13.3334 28.1334 14.5201 29.3334 16.0001 29.3334H26.6667C28.1334 29.3334 29.3334 28.1334 29.3334 26.6667V16.0001C29.3334 14.5334 28.1334 13.3334 26.6667 13.3334Z" fill="black"/>
</g>
<defs>
<clipPath id="clip0_14_314">
<rect width="32" height="32" fill="white"/>
</clipPath>
</defs>
</svg>
